/* XPM */
static char * command_xpm[] = {
/* width height ncolors chars_per_pixel */
"17 17 4 1",
/* colors */
"  s None c None",
". c #FFCC99",
"x c #FF9966",
"o c #FFCC00",
/* pixels */
"         xxoooooo",
"        xxoooooo ",
"       xxooooo   ",
"      xxoooo     ",
"     xxooo       ",
"    xxoo         ",
"   xxo           ",
"  xxoxxxxxxoooooo",
" xxoxxxxxxoooooo ",
"       xxooooo   ",
"      xxoooo     ",
"     xxooo       ",
"    xxoo         ",
"   xxo           ",
"  xxo            ",
" xo              ",
"xo               "};
