/* XPM */
static char *text[] = {
/* width height ncolors chars_per_pixel */
"19 21 5 1",
/* colors */
". c #FCFEFC",
", c #C4C2C4",
"X c #848284",
"o c #040204",
"  s None c None",
/* pixels */
"                   ",
"                   ",
"  oooooooooooooooo ",
"  o..............o ",
"  o......o.......o ",
"  o.Xoo..ooX.....o ",
"  o.o.o..o.o.....o ",
"  o.Xooo.ooX.....o ",
"  o........o.....o ",
"  o.Xoo..Xoo.....o ",
"  o.o....o.o.....o ",
"  o.Xoo..Xoo.....o ",
"  o..............o ",
"  o.Xoo..Xoo.....o ",
"  o.oo...oo......o ",
"  o.Xoo..X.......o ",
"  o..............o ",
"  oooooooooooooooo ",
"                   ",
"                   ",
"                   "
};
