/* XPM */
static char *viewcode[] = {
/* width height ncolors chars_per_pixel */
"19 17 6 1",
/* colors */
". c #FCFEFC",
"  s None c None",
"X c #0402FC",
"o c #848284",
"O c #FCFE04",
"+ c #040204",
/* pixels */
"                   ",
"                   ",
"    ++++++++++++++ ",
"    +............+ ",
"    +.oooo.oo....+ ",
"    +............+ ",
"    ++++o.oo.....+ ",
"   +....+........+ ",
"  + .oo.o+.o.....+ ",
"  + .....+.......+ ",
"  + .o.oo+.......+ ",
"  +  ....+++++++++ ",
"   +    +O         ",
"    ++++o+X        ",
"         ++X       ",
"          ++X      ",
"                   "
};
